<svg xmlns="http://www.w3.org/2000/svg"
     viewBox="0 0 2000 220"
     preserveAspectRatio="xMidYMid slice">

  <!-- Sky -->
  <rect width="2000" height="220" fill="#87CEEB" />

  <!-- Sun -->
  <circle cx="1750" cy="40" r="25" fill="#FFD966" />

  <!-- Clouds -->
  <g fill="#FFFFFF" opacity="0.8">
    <ellipse cx="300" cy="40" rx="40" ry="18" />
    <ellipse cx="330" cy="35" rx="30" ry="14" />
    <ellipse cx="360" cy="42" rx="35" ry="16" />
  </g>

  <!-- Hill Path -->
  <path id="hillPath"
        d="M 2000 120 C 1500 20, 500 20, 0 120"
        fill="none"
        stroke="#3CB371"
        stroke-width="8" />

  <!-- Road Path -->
  <path id="roadPath"
        d="M 0 180 L 2000 180"
        fill="none"
        stroke="#444"
        stroke-width="10"
        stroke-linecap="round" />

  <!-- Cyclist -->
  <g id="cyclist" fill="#000" stroke="none">

    <!-- Rear wheel -->
    <g id="rearWheel" transform="translate(-18,0)">
      <circle r="10" fill="none" stroke="#000" stroke-width="2" />
      <animateTransform attributeName="transform"
                        type="rotate"
                        from="0 0 0"
                        to="360 0 0"
                        dur="1s"
                        repeatCount="indefinite" />
    </g>

    <!-- Front wheel -->
    <g id="frontWheel" transform="translate(18,0)">
      <circle r="10" fill="none" stroke="#000" stroke-width="2" />
      <animateTransform attributeName="transform"
                        type="rotate"
                        from="0 0 0"
                        to="360 0 0"
                        dur="1s"
                        repeatCount="indefinite" />
    </g>

    <!-- Bike frame -->
    <polyline points="-18,0 -5,-15 18,0" fill="none" stroke="#000" stroke-width="2" />
    <line x1="-5" y1="-15" x2="-2" y2="-25" stroke="#000" stroke-width="2" />
    <line x1="5" y1="-18" x2="18" y2="-5" stroke="#000" stroke-width="2" />

    <!-- Rider -->
    <circle cx="-2" cy="-30" r="5" />
    <line x1="-2" y1="-25" x2="-10" y2="-10" stroke="#000" stroke-width="2" />
    <line x1="-10" y1="-10" x2="-5" y2="0" stroke="#000" stroke-width="2" />
    <line x1="-2" y1="-25" x2="8" y2="-10" stroke="#000" stroke-width="2" />
    <line x1="8" y1="-10" x2="5" y2="0" stroke="#000" stroke-width="2" />
  </g>

  <!-- Motion -->
  <animateMotion
      xlink:href="#cyclist"
      dur="12s"
      repeatCount="indefinite"
      rotate="auto"
      keyTimes="0;0.5;0.5001;1"
      keySplines="0.42 0 0.58 1; 0 0 1 1; 0.42 0 0.58 1"
      calcMode="spline"
      path="
        M 0 180 L 2000 180
        M 2000 120 C 1500 20, 500 20, 0 120
      " />

</svg>
