<svg
  xmlns="http://www.w3.org/2000/svg"
  viewBox="0 0 2000 220"
  preserveAspectRatio="xMidYMid slice">

  <!-- Background sky -->
  <defs>
    <linearGradient id="skyGradient" x1="0" y1="0" x2="0" y2="1">
      <stop offset="0%" stop-color="#0b1020"/>
      <stop offset="100%" stop-color="#101830"/>
    </linearGradient>
  </defs>
  <rect x="0" y="0" width="2000" height="220" fill="url(#skyGradient)" />

  <!-- Sun -->
  <circle cx="1700" cy="40" r="20" fill="#f7d35c" opacity="0.9" />

  <!-- Clouds -->
  <g fill="#ffffff" opacity="0.7">
    <ellipse cx="300" cy="40" rx="40" ry="18" />
    <ellipse cx="330" cy="35" rx="30" ry="14" />
    <ellipse cx="360" cy="42" rx="35" ry="16" />

    <ellipse cx="900" cy="30" rx="35" ry="16" />
    <ellipse cx="930" cy="25" rx="25" ry="12" />
    <ellipse cx="955" cy="32" rx="28" ry="13" />
  </g>

  <!-- Hill (background path) -->
  <path
    id="hillPath"
    d="M 2000 120
       C 1500 20, 500 20, 0 120"
    fill="none"
    stroke="#2f7f4f"
    stroke-width="6" />

  <!-- Road (foreground) -->
  <path
    id="roadPath"
    d="M 0 180 L 2000 180"
    fill="none"
    stroke="#444444"
    stroke-width="8"
    stroke-linecap="round" />

  <!-- Water stop (between road and hill) -->
  <g transform="translate(1200, 150)">
    <rect x="-10" y="-20" width="20" height="20" fill="#1e88e5" rx="3" />
    <rect x="-4" y="-28" width="8" height="8" fill="#bbdefb" />
  </g>

  <!-- Road sign -->
  <g transform="translate(400, 145)">
    <rect x="-3" y="-25" width="6" height="25" fill="#555555" />
    <rect x="-18" y="-45" width="36" height="20" fill="#ffb300" rx="3" />
    <text x="0" y="-30" text-anchor="middle" font-size="10" fill="#222222" font-family="sans-serif">
      RIDE
    </text>
  </g>

  <!-- Cyclist group (silhouette) -->
  <g id="cyclist" fill="#f5f5f5" stroke="none">
    <!-- Rear wheel -->
    <g id="rearWheel" transform="translate(-18,0)">
      <circle r="10" fill="none" stroke="#f5f5f5" stroke-width="2" />
      <line x1="-7" y1="0" x2="7" y2="0" stroke="#f5f5f5" stroke-width="1" />
      <line x1="0" y1="-7" x2="0" y2="7" stroke="#f5f5f5" stroke-width="1" />
      <animateTransform
        attributeName="transform"
        attributeType="XML"
        type="rotate"
        from="0 0 0"
        to="360 0 0"
        dur="1.2s"
        repeatCount="indefinite" />
    </g>

    <!-- Front wheel -->
    <g id="frontWheel" transform="translate(18,0)">
      <circle r="10" fill="none" stroke="#f5f5f5" stroke-width="2" />
      <line x1="-7" y1="0" x2="7" y2="0" stroke="#f5f5f5" stroke-width="1" />
      <line x1="0" y1="-7" x2="0" y2="7" stroke="#f5f5f5" stroke-width="1" />
      <animateTransform
        attributeName="transform"
        attributeType="XML"
        type="rotate"
        from="0 0 0"
        to="360 0 0"
        dur="1.2s"
        repeatCount="indefinite" />
    </g>

    <!-- Frame -->
    <polyline points="-18,0 -5,-15 18,0" fill="none" stroke="#f5f5f5" stroke-width="2" />
    <line x1="-5" y1="-15" x2="-2" y2="-25" stroke="#f5f5f5" stroke-width="2" />
    <line x1="5" y1="-18" x2="18" y2="-5" stroke="#f5f5f5" stroke-width="2" />

    <!-- Rider body -->
    <circle cx="-2" cy="-30" r="5" />
    <line x1="-2" y1="-25" x2="-10" y2="-10" stroke="#f5f5f5" stroke-width="2" />
    <line x1="-10" y1="-10" x2="-5" y2="0" stroke="#f5f5f5" stroke-width="2" />
    <line x1="-2" y1="-25" x2="8" y2="-10" stroke="#f5f5f5" stroke-width="2" />
    <line x1="8" y1="-10" x2="5" y2="0" stroke="#f5f5f5" stroke-width="2" />
  </g>

  <!-- Animated cyclist instance -->
  <g id="cyclistMotion">
    <use href="#cyclist">
      <!-- Phase 1: ride right on road -->
      <animateMotion
        id="rideRoad"
        dur="6s"
        repeatCount="indefinite"
        keySplines="0.42 0 0.58 1"
        keyTimes="0;1"
        calcMode="spline"
        path="M 0 180 L 2000 180" />
    </use>
  </g>

</svg>
